<?xml version="1.0" encoding="UTF-8" standalone="no"?>
<!-- Created with Inkscape (http://www.inkscape.org/) -->

<svg
   version="1.1"
   id="svg2"
   width="341.33334"
   height="341.33334"
   viewBox="0 0 341.33334 341.33334"
   sodipodi:docname="wosm.svg"
   xml:space="preserve"
   inkscape:version="1.2.2 (732a01da63, 2022-12-09)"
   xmlns:inkscape="http://www.inkscape.org/namespaces/inkscape"
   xmlns:sodipodi="http://sodipodi.sourceforge.net/DTD/sodipodi-0.dtd"
   xmlns="http://www.w3.org/2000/svg"
   xmlns:svg="http://www.w3.org/2000/svg"><defs
     id="defs6"><clipPath
       clipPathUnits="userSpaceOnUse"
       id="clipPath18"><path
         d="M 0,256 H 256 V 0 H 0 Z"
         id="path16" /></clipPath><clipPath
       clipPathUnits="userSpaceOnUse"
       id="clipPath30"><path
         d="M 17,194 H 241 V 84 H 17 Z"
         id="path28" /></clipPath><clipPath
       clipPathUnits="userSpaceOnUse"
       id="clipPath34"><path
         d="M 17,194 H 241 V 84 H 17 Z"
         id="path32" /></clipPath><clipPath
       clipPathUnits="userSpaceOnUse"
       id="clipPath38"><path
         d="M 104.425,213.622 C 100.056,218.927 93.544,222 86.671,222 H 29 c -6.627,0 -12,-5.373 -12,-12 V 197.863 187.8 96 c 0,-6.627 5.373,-12 12,-12 h 200 c 6.627,0 12,5.373 12,12 v 89.863 c 0,6.627 -5.373,12 -12,12 H 117.404 Z"
         clip-rule="evenodd"
         id="path36" /></clipPath><linearGradient
       x1="0"
       y1="0"
       x2="1"
       y2="0"
       gradientUnits="userSpaceOnUse"
       gradientTransform="matrix(180.76801,-181.142,181.142,180.76801,32.581543,237.54932)"
       spreadMethod="pad"
       id="linearGradient44"><stop
         style="stop-opacity:1;stop-color:#05815d"
         offset="0"
         id="stop40" /><stop
         style="stop-opacity:1;stop-color:#0c575f"
         offset="1"
         id="stop42" /></linearGradient><mask
       maskUnits="userSpaceOnUse"
       x="0"
       y="0"
       width="1"
       height="1"
       id="mask46"><g
         id="g70"><g
           clip-path="url(#clipPath30)"
           id="g68"><path
             d="M 17,194 H 241 V 84 H 17 Z"
             style="fill:#000000;fill-opacity:1;fill-rule:nonzero;stroke:none"
             id="path48" /><g
             id="g66"><g
               id="g50" /><g
               id="g64"><g
                 clip-path="url(#clipPath34)"
                 id="g62"><g
                   id="g60"><g
                     clip-path="url(#clipPath38)"
                     id="g58"><g
                       id="g56"><g
                         id="g54"><path
                           d="M 104.425,213.622 C 100.056,218.927 93.544,222 86.671,222 H 29 c -6.627,0 -12,-5.373 -12,-12 V 197.863 187.8 96 c 0,-6.627 5.373,-12 12,-12 h 200 c 6.627,0 12,5.373 12,12 v 89.863 c 0,6.627 -5.373,12 -12,12 H 117.404 Z"
                           style="fill:url(#linearGradient44);fill-rule:evenodd;stroke:none"
                           id="path52" /></g></g></g></g></g></g></g></g></g></mask><clipPath
       clipPathUnits="userSpaceOnUse"
       id="clipPath78"><path
         d="M 17,194 H 241 V 84 H 17 Z"
         id="path76" /></clipPath><clipPath
       clipPathUnits="userSpaceOnUse"
       id="clipPath94"><path
         d="m 116.459,194 -9.873,-7.402 C 102.605,183.613 97.764,182 92.789,182 v 0 H 87 29 c -6.628,0 -12,-5.372 -12,-12 v 0 -22 -90 c 0,-6.627 5.372,-12 12,-12 v 0 h 200 c 6.627,0 12,5.373 12,12 v 0 90 34 c 0,6.627 -5.373,12 -12,12 v 0 z"
         id="path92" /></clipPath><linearGradient
       x1="0"
       y1="0"
       x2="1"
       y2="0"
       gradientUnits="userSpaceOnUse"
       gradientTransform="matrix(223.99998,-147.99998,147.99998,223.99998,16.999996,194)"
       spreadMethod="pad"
       id="linearGradient106"><stop
         style="stop-opacity:1;stop-color:#ffe7a2"
         offset="0"
         id="stop100" /><stop
         style="stop-opacity:1;stop-color:#ffcb3d"
         offset="0.953125"
         id="stop102" /><stop
         style="stop-opacity:1;stop-color:#ffcb3d"
         offset="1"
         id="stop104" /></linearGradient><clipPath
       clipPathUnits="userSpaceOnUse"
       id="clipPath116"><path
         d="M 229,50 H 29 c -6.628,0 -12,5.372 -12,12 v 0 -4 c 0,-6.627 5.372,-12 12,-12 v 0 h 200 c 6.627,0 12,5.373 12,12 v 0 4 c 0,-6.628 -5.373,-12 -12,-12"
         id="path114" /></clipPath><linearGradient
       x1="0"
       y1="0"
       x2="1"
       y2="0"
       gradientUnits="userSpaceOnUse"
       gradientTransform="matrix(224.01749,-2.5002055,2.5002055,224.01749,16.925417,55.317421)"
       spreadMethod="pad"
       id="linearGradient126"><stop
         style="stop-opacity:1;stop-color:#ffcf4e"
         offset="0"
         id="stop122" /><stop
         style="stop-opacity:1;stop-color:#ffb504"
         offset="1"
         id="stop124" /></linearGradient><clipPath
       clipPathUnits="userSpaceOnUse"
       id="clipPath136"><path
         d="m 116.459,194 -9.873,-7.402 C 102.605,183.613 97.764,182 92.789,182 v 0 H 87 29 c -6.628,0 -12,-5.372 -12,-12 v 0 -4 c 0,6.627 5.372,12 12,12 v 0 h 58 5.789 c 4.975,0 9.816,1.613 13.797,4.597 v 0 L 116.459,190 H 229 c 6.627,0 12,-5.372 12,-12 v 0 4 c 0,6.627 -5.373,12 -12,12 v 0 z"
         id="path134" /></clipPath><linearGradient
       x1="0"
       y1="0"
       x2="1"
       y2="0"
       gradientUnits="userSpaceOnUse"
       gradientTransform="matrix(224,0,0,224,17,180)"
       spreadMethod="pad"
       id="linearGradient146"><stop
         style="stop-opacity:1;stop-color:#ffecb5"
         offset="0"
         id="stop142" /><stop
         style="stop-opacity:1;stop-color:#ffde82"
         offset="1"
         id="stop144" /></linearGradient></defs><sodipodi:namedview
     id="namedview4"
     pagecolor="#ffffff"
     bordercolor="#000000"
     borderopacity="0.25"
     inkscape:showpageshadow="2"
     inkscape:pageopacity="0.0"
     inkscape:pagecheckerboard="0"
     inkscape:deskcolor="#d1d1d1"
     showgrid="false"
     inkscape:zoom="3.0087889"
     inkscape:cx="202.5732"
     inkscape:cy="144.57644"
     inkscape:window-width="3840"
     inkscape:window-height="2089"
     inkscape:window-x="2552"
     inkscape:window-y="-8"
     inkscape:window-maximized="1"
     inkscape:current-layer="g10"><inkscape:page
       x="0"
       y="0"
       id="page8"
       width="341.33334"
       height="341.33334" /></sodipodi:namedview><g
     id="g10"
     inkscape:groupmode="layer"
     inkscape:label="Page 1"
     transform="matrix(1.3333333,0,0,-1.3333333,0,341.33333)"><g
       id="g12"
       style="fill:#4b2599;fill-opacity:1"><g
         id="g14"
         clip-path="url(#clipPath18)"
         style="fill:#4b2599;fill-opacity:1"><g
           id="g20"
           transform="translate(104.425,213.6216)"
           style="fill:#4b2599;fill-opacity:1"><path
             d="m 0,0 c -4.369,5.305 -10.881,8.378 -17.754,8.378 h -57.671 c -6.627,0 -12,-5.372 -12,-12 v -12.137 -10.063 -91.8 c 0,-6.627 5.373,-12 12,-12 h 200 c 6.627,0 12,5.373 12,12 v 89.863 c 0,6.628 -5.373,12 -12,12 H 12.979 Z"
             style="fill:#4b2599;fill-opacity:1;fill-rule:evenodd;stroke:none"
             id="path22" /></g><g
           id="g24"
           style="fill:#4b2599;fill-opacity:1"><g
             id="g26"
             style="fill:#4b2599;fill-opacity:1" /><g
             id="g72"
             mask="url(#mask46)"
             style="fill:#4b2599;fill-opacity:1"><g
               id="g74"
               style="fill:#4b2599;fill-opacity:1" /><g
               id="g86"
               style="fill:#4b2599;fill-opacity:1"><g
                 clip-path="url(#clipPath78)"
                 id="g84"
                 style="fill:#4b2599;fill-opacity:1"><g
                   transform="translate(92.789,182)"
                   id="g82"
                   style="fill:#4b2599;fill-opacity:1"><path
                     d="M 0,0 C 4.975,0 9.816,1.613 13.797,4.598 L 23.67,12 h 112.541 c 6.627,0 12,-5.373 12,-12 v -34 -52 c 0,-6.627 -5.373,-12 -12,-12 h -200 c -6.627,0 -12,5.373 -12,12 v 52 22 c 0,6.627 5.373,12 12,12 h 58 z"
                     style="fill:#4b2599;fill-opacity:1;fill-rule:evenodd;stroke:none"
                     id="path80" /></g></g></g></g></g></g></g><g
       id="g88"
       style="fill:#622599;fill-opacity:1"><g
         id="g90"
         clip-path="url(#clipPath94)"
         style="fill:#622599;fill-opacity:1"><g
           id="g96"
           style="fill:#622599;fill-opacity:1"><g
             id="g98"
             style="fill:#622599;fill-opacity:1"><path
               d="m 116.459,194 -9.873,-7.402 C 102.605,183.613 97.764,182 92.789,182 v 0 H 87 29 c -6.628,0 -12,-5.372 -12,-12 v 0 -22 -90 c 0,-6.627 5.372,-12 12,-12 v 0 h 200 c 6.627,0 12,5.373 12,12 v 0 90 34 c 0,6.627 -5.373,12 -12,12 v 0 z"
               style="fill:#622599;stroke:none;fill-opacity:1"
               id="path108" /></g></g></g></g><g
       id="g110"
       style="fill:#4b2599;fill-opacity:1"><g
         id="g112"
         clip-path="url(#clipPath116)"
         style="fill:#4b2599;fill-opacity:1"><g
           id="g118"
           style="fill:#4b2599;fill-opacity:1"><g
             id="g120"
             style="fill:#4b2599;fill-opacity:1"><path
               d="M 229,50 H 29 c -6.628,0 -12,5.372 -12,12 v 0 -4 c 0,-6.627 5.372,-12 12,-12 v 0 h 200 c 6.627,0 12,5.373 12,12 v 0 4 c 0,-6.628 -5.373,-12 -12,-12"
               style="fill:#4b2599;stroke:none;fill-opacity:1"
               id="path128" /></g></g></g></g><g
       id="g130"
       style="fill:#e6e6e6;fill-opacity:1"><g
         id="g132"
         clip-path="url(#clipPath136)"
         style="fill:#e6e6e6;fill-opacity:1"><g
           id="g138"
           style="fill:#e6e6e6;fill-opacity:1"><g
             id="g140"
             style="fill:#e6e6e6;fill-opacity:1"><path
               d="m 116.459,194 -9.873,-7.402 C 102.605,183.613 97.764,182 92.789,182 v 0 H 87 29 c -6.628,0 -12,-5.372 -12,-12 v 0 -4 c 0,6.627 5.372,12 12,12 v 0 h 58 5.789 c 4.975,0 9.816,1.613 13.797,4.597 v 0 L 116.459,190 H 229 c 6.627,0 12,-5.372 12,-12 v 0 4 c 0,6.627 -5.373,12 -12,12 v 0 z"
               style="fill:#e6e6e6;stroke:none;fill-opacity:1"
               id="path148" /></g></g></g></g><g
       transform="matrix(0.00468902,0,0,0.00437826,82.526781,60.871019)"
       fill="#000000"
       stroke="none"
       id="g7986"
       style="fill:#ffffff"><path
         d="m 10025,23983 c -70,-4 -70,-4 -128,-61 -76,-75 -115,-180 -132,-357 -9,-91 -39,-156 -106,-229 l -54,-59 90,7 c 198,15 491,26 691,26 h 211 l 59,54 c 72,65 107,127 127,226 21,100 62,216 92,262 14,21 47,55 75,77 l 49,39 -27,6 c -33,7 -848,15 -947,9 z"
         id="path7840"
         style="fill:#ffffff" /><path
         d="m 9415,23944 c -182,-18 -418,-48 -630,-80 -188,-29 -189,-29 -250,-118 -46,-67 -65,-157 -65,-311 0,-147 -7,-172 -71,-270 -35,-54 -44,-75 -32,-71 82,25 546,105 791,136 l 162,21 39,42 c 81,86 100,131 117,273 15,129 36,231 56,269 6,10 34,43 61,72 l 50,53 -44,-1 c -24,-1 -107,-7 -184,-15 z"
         id="path7842"
         style="fill:#ffffff" /><path
         d="m 11285,23928 c -88,-63 -125,-111 -165,-214 -22,-57 -40,-109 -40,-117 0,-8 -9,-43 -20,-78 -22,-71 -59,-122 -132,-179 l -48,-39 53,-5 c 28,-3 95,-8 147,-11 140,-8 485,-44 640,-65 l 135,-19 54,32 c 79,47 144,123 166,193 25,81 86,211 123,260 17,23 58,59 92,80 34,21 58,39 54,41 -62,18 -570,94 -789,118 -256,27 -237,27 -270,3 z"
         id="path7844"
         style="fill:#ffffff" /><path
         d="m 8050,23721 c -227,-54 -485,-123 -657,-176 l -112,-35 -34,-58 c -63,-104 -65,-122 -41,-447 5,-71 3,-88 -19,-143 -14,-34 -35,-75 -46,-91 -20,-28 -18,-28 234,55 233,77 639,194 671,194 19,0 68,63 104,134 l 31,62 3,184 c 3,207 9,236 70,319 31,42 35,51 19,50 -10,0 -110,-22 -223,-48 z"
         id="path7846"
         style="fill:#ffffff" /><path
         d="m 12593,23705 c -97,-55 -163,-148 -227,-319 -35,-92 -61,-125 -150,-184 l -75,-50 92,-17 c 163,-29 446,-94 662,-151 l 209,-55 73,37 c 88,45 140,98 189,196 39,79 108,180 145,215 13,12 53,36 89,54 61,30 63,32 40,41 -130,49 -814,237 -950,261 -28,6 -47,0 -97,-28 z"
         id="path7848"
         style="fill:#ffffff" /><path
         d="m 6745,23326 c -241,-92 -475,-188 -631,-261 -76,-35 -105,-54 -114,-73 -29,-63 -50,-138 -50,-181 0,-47 27,-182 55,-281 20,-68 13,-141 -20,-224 -13,-33 -23,-62 -21,-64 2,-2 73,31 157,74 164,82 454,213 631,284 105,43 107,44 132,94 59,118 67,170 41,291 -8,39 -15,119 -15,178 0,102 2,111 32,170 42,80 41,77 31,77 -4,-1 -107,-38 -228,-84 z"
         id="path7850"
         style="fill:#ffffff" /><path
         d="m 13902,23335 c -35,-14 -77,-34 -94,-46 -37,-27 -140,-164 -175,-234 -45,-89 -78,-121 -172,-168 l -87,-44 116,-38 c 171,-56 443,-158 634,-237 l 169,-71 56,18 c 115,36 173,77 231,165 48,72 134,171 173,200 22,16 63,37 91,46 28,8 58,18 66,21 18,6 -31,32 -245,128 -194,87 -494,209 -685,279 -8,3 -43,-6 -78,-19 z"
         id="path7852"
         style="fill:#ffffff" /><path
         d="m 5555,22794 c -202,-108 -421,-233 -596,-340 l -135,-83 -17,-54 c -39,-125 -31,-194 49,-389 49,-119 54,-168 30,-273 -8,-33 -13,-61 -12,-62 2,-2 77,46 167,106 156,103 506,317 615,375 49,26 53,32 74,95 35,107 37,165 6,257 -31,94 -56,218 -56,280 0,24 11,73 25,109 13,36 21,65 17,65 -4,-1 -79,-39 -167,-86 z"
         id="path7854"
         style="fill:#ffffff" /><path
         d="m 15120,22787 c -105,-32 -178,-94 -295,-256 -47,-65 -106,-105 -199,-133 l -68,-21 268,-137 c 148,-75 341,-179 429,-230 179,-105 178,-104 305,-68 71,20 79,26 156,104 151,155 221,206 299,219 108,17 107,11 4,78 -241,154 -787,468 -814,466 -5,0 -44,-10 -85,-22 z"
         id="path7856"
         style="fill:#ffffff" /><path
         d="m 4480,22143 c -276,-197 -563,-414 -691,-524 l -67,-58 -11,-78 c -16,-112 -4,-150 134,-408 37,-70 37,-70 33,-175 l -3,-106 115,102 c 145,129 336,286 511,419 l 136,104 11,57 c 7,32 12,87 12,124 0,57 -6,78 -39,148 -52,106 -91,231 -91,290 0,26 7,71 14,100 8,28 11,52 8,52 -4,0 -36,-21 -72,-47 z"
         id="path7858"
         style="fill:#ffffff" /><path
         d="m 16253,22090 c -78,-16 -172,-81 -288,-200 -33,-34 -76,-70 -95,-80 -29,-15 -167,-50 -197,-50 -4,0 58,-43 137,-96 185,-124 344,-238 517,-371 l 137,-106 86,6 c 115,8 150,21 228,87 155,130 229,169 335,178 l 82,7 -150,125 c -166,139 -332,268 -532,414 -143,104 -152,107 -260,86 z"
         id="path7860"
         style="fill:#ffffff" /><path
         d="m 10220,21604 c -286,-289 -701,-643 -1145,-979 -236,-178 -317,-247 -489,-415 -644,-630 -1045,-1418 -1142,-2244 -18,-153 -20,-472 -4,-631 58,-594 232,-1119 720,-2180 197,-427 332,-732 413,-925 317,-762 479,-1354 549,-1995 12,-110 22,-201 23,-202 0,-1 131,6 290,17 160,10 378,24 486,31 l 196,12 6,1286 c 6,1204 10,1531 37,2481 29,1021 74,2092 125,2955 14,231 28,470 31,530 4,61 10,116 13,123 15,28 97,-1487 136,-2508 55,-1465 78,-2696 73,-3986 l -3,-892 175,-1 c 160,-2 362,-10 687,-27 l 121,-7 6,44 c 75,617 187,1070 418,1689 106,283 225,564 478,1130 347,777 456,1043 575,1405 166,500 237,895 238,1310 0,218 -12,360 -48,560 -134,728 -505,1414 -1075,1985 -178,179 -308,291 -550,475 -441,337 -847,684 -1115,954 -60,61 -112,111 -115,111 -3,0 -53,-48 -110,-106 z"
         id="path7862"
         style="fill:#ffffff" /><path
         d="m 3339,21226 c -79,-73 -246,-237 -371,-364 l -228,-231 v -88 c 0,-72 5,-98 24,-140 31,-66 84,-149 140,-217 54,-66 74,-119 83,-219 l 8,-79 130,149 c 72,81 222,242 335,356 l 205,209 v 107 c 0,118 -3,127 -102,287 -27,45 -60,113 -72,152 -20,61 -22,79 -14,141 5,39 9,71 8,71 -1,0 -67,-60 -146,-134 z"
         id="path7864"
         style="fill:#ffffff" /><path
         d="m 17200,21222 c -76,-39 -133,-76 -197,-128 -77,-63 -103,-74 -210,-87 l -95,-12 158,-140 c 88,-77 248,-227 357,-334 l 198,-194 79,-5 c 105,-6 159,9 250,68 41,27 111,66 155,87 76,36 85,38 173,37 l 92,-2 -42,52 c -23,28 -185,194 -359,369 l -316,317 h -94 c -83,0 -100,-3 -149,-28 z"
         id="path7866"
         style="fill:#ffffff" /><path
         d="m 2469,20319 c -134,-154 -369,-456 -542,-695 -41,-58 -44,-81 -24,-181 17,-79 64,-148 178,-264 97,-98 115,-129 136,-238 l 15,-77 121,179 c 67,99 196,278 287,399 l 165,220 -7,89 c -8,106 -28,155 -96,232 -114,128 -160,216 -170,322 l -7,78 z"
         id="path7868"
         style="fill:#ffffff" /><path
         d="m 18129,20266 c -36,-12 -97,-40 -135,-61 -188,-104 -168,-97 -284,-93 l -106,3 115,-130 c 136,-155 293,-347 415,-508 100,-132 104,-134 241,-144 73,-5 87,-3 145,22 226,95 235,98 310,102 49,3 92,-1 123,-10 26,-8 47,-13 47,-10 0,18 -323,455 -489,661 -64,79 -121,150 -126,157 -10,11 -127,35 -172,35 -10,0 -48,-11 -84,-24 z"
         id="path7870"
         style="fill:#ffffff" /><path
         d="m 1633,19187 c -112,-176 -272,-447 -366,-622 l -87,-160 15,-63 c 8,-34 24,-79 34,-100 21,-41 144,-161 237,-232 64,-49 95,-96 129,-197 l 21,-65 38,84 c 53,115 228,445 335,630 l 89,154 -9,57 c -19,119 -40,154 -172,288 -130,132 -162,181 -173,264 -4,28 -10,55 -13,62 -4,7 -37,-35 -78,-100 z"
         id="path7872"
         style="fill:#ffffff" /><path
         d="m 18871,19185 c -47,-14 -117,-40 -155,-57 -86,-38 -148,-44 -241,-25 -38,8 -71,14 -73,12 -2,-2 46,-78 107,-169 104,-156 314,-498 375,-612 27,-50 30,-52 104,-75 95,-30 186,-30 257,-2 136,55 304,66 398,25 26,-12 47,-19 47,-16 0,23 -255,482 -407,731 l -104,173 -52,16 c -90,27 -162,27 -256,-1 z"
         id="path7874"
         style="fill:#ffffff" /><path
         d="m 960,17957 c -98,-214 -184,-417 -264,-625 l -65,-170 24,-63 c 14,-35 34,-77 46,-93 30,-44 139,-127 229,-176 97,-52 130,-86 179,-182 l 38,-76 42,127 c 66,193 162,449 236,626 66,156 67,161 56,205 -7,25 -26,74 -44,110 -28,57 -42,72 -117,125 -47,33 -119,93 -161,135 -68,67 -78,83 -98,148 -13,39 -24,72 -25,72 0,0 -35,-73 -76,-163 z"
         id="path7876"
         style="fill:#ffffff" /><path
         d="m 19122,17877 c 83,-167 211,-451 288,-639 l 44,-107 65,-30 c 116,-53 147,-57 255,-37 53,10 142,19 199,20 102,1 106,0 176,-36 39,-21 71,-35 71,-32 0,17 -177,472 -250,644 -144,336 -131,313 -203,346 -56,26 -71,29 -162,28 -69,-1 -125,-8 -180,-24 -144,-40 -170,-43 -237,-25 -33,8 -80,24 -104,34 l -43,20 z"
         id="path7878"
         style="fill:#ffffff" /><path
         d="m 19637,16612 c 76,-232 193,-636 193,-668 0,-18 71,-70 145,-105 58,-28 65,-29 217,-29 193,0 241,-10 324,-65 35,-24 64,-39 64,-33 0,5 -18,90 -40,187 -74,329 -202,783 -228,814 -9,10 -48,34 -88,54 l -73,35 -143,-7 c -291,-14 -285,-15 -375,30 l -79,40 z"
         id="path7880"
         style="fill:#ffffff" /><path
         d="m 477,16703 c -67,-214 -110,-369 -173,-620 l -55,-222 27,-53 c 14,-29 37,-68 51,-86 30,-40 152,-112 262,-155 98,-37 163,-92 215,-179 l 34,-58 16,93 c 29,157 103,483 156,681 l 51,190 -37,74 c -47,96 -89,137 -195,190 -47,24 -117,67 -155,96 -58,44 -75,64 -104,123 -19,40 -38,72 -41,72 -3,1 -26,-65 -52,-146 z"
         id="path7882"
         style="fill:#ffffff" /><path
         d="m 4910,16814 c -19,-2 -78,-9 -130,-14 -312,-34 -663,-149 -940,-307 -708,-403 -1181,-1112 -1307,-1958 -22,-148 -25,-552 -5,-690 85,-595 323,-1085 722,-1485 188,-189 360,-316 575,-423 307,-154 569,-212 912,-205 106,2 195,6 198,10 4,3 -3,62 -14,130 -28,174 -34,285 -21,418 55,582 384,1001 886,1129 506,129 983,-67 1349,-554 190,-254 349,-577 445,-910 18,-60 33,-111 35,-113 1,-2 61,8 132,22 181,35 435,70 728,100 138,14 273,28 301,32 l 52,5 -5,62 c -41,555 -184,1172 -413,1778 -184,486 -459,1016 -730,1405 -237,341 -575,710 -843,923 -434,344 -886,548 -1373,621 -132,20 -468,34 -554,24 z m -447,-1766 c 7,2 137,69 291,148 153,80 280,143 283,141 2,-3 -62,-137 -143,-298 l -146,-293 238,-233 c 132,-128 232,-232 224,-232 -8,0 -157,21 -330,48 l -315,48 -148,-295 c -82,-162 -151,-291 -155,-288 -3,4 -29,148 -57,321 -29,173 -54,317 -56,320 -3,2 -142,25 -310,50 -167,25 -312,49 -323,53 -14,6 51,44 270,156 159,82 291,151 293,152 2,2 -19,145 -48,316 -28,172 -51,319 -51,326 0,8 106,-89 236,-215 129,-125 240,-227 247,-225 z"
         id="path7884"
         style="fill:#ffffff" /><path
         d="m 15415,16810 c -878,-64 -1650,-533 -2307,-1401 -585,-772 -1039,-1854 -1207,-2876 -32,-191 -67,-521 -57,-531 4,-3 109,-16 234,-28 390,-39 521,-57 948,-131 31,-5 32,-4 44,48 22,92 109,335 165,462 279,623 696,1012 1167,1087 122,20 360,8 480,-23 447,-117 765,-471 865,-964 27,-131 24,-491 -4,-618 -11,-49 -20,-91 -18,-93 1,-1 51,-7 111,-13 130,-13 296,-5 454,22 519,87 996,392 1350,861 261,345 423,734 491,1179 30,191 32,542 5,724 -87,599 -331,1109 -724,1517 -361,374 -782,613 -1272,722 -225,50 -509,72 -725,56 z m 1225,-1628 c -27,-165 -50,-310 -50,-321 0,-16 56,-48 285,-166 156,-80 286,-149 289,-153 3,-5 -140,-30 -317,-56 -177,-27 -325,-51 -328,-55 -3,-3 -30,-151 -59,-329 l -53,-323 -50,93 c -27,51 -94,183 -149,293 -55,110 -102,202 -104,204 -2,2 -145,-17 -318,-44 -173,-26 -320,-45 -326,-43 -7,2 94,106 224,232 l 235,228 -149,299 c -83,164 -147,299 -144,299 3,0 136,-68 295,-151 l 290,-150 147,140 c 81,77 187,180 237,230 49,50 91,87 93,83 1,-5 -20,-144 -48,-310 z"
         id="path7886"
         style="fill:#ffffff" /><path
         d="m 19904,15623 c 25,-82 105,-549 136,-793 l 20,-155 48,-45 c 80,-75 138,-101 250,-110 115,-10 233,-35 282,-60 19,-10 56,-38 83,-62 40,-38 47,-41 47,-24 0,89 -59,590 -101,861 l -22,140 -43,42 c -86,83 -152,102 -370,107 -133,4 -143,5 -201,34 -33,17 -74,42 -90,56 -36,30 -46,33 -39,9 z"
         id="path7888"
         style="fill:#ffffff" /><path
         d="m 142,15297 c -36,-213 -70,-476 -96,-728 -6,-55 -5,-59 39,-118 25,-34 65,-74 90,-90 42,-26 172,-73 300,-107 52,-14 68,-25 137,-93 l 77,-78 5,41 c 3,23 8,86 11,141 10,166 35,420 60,608 l 24,179 -26,41 c -72,115 -111,145 -251,196 -77,28 -183,82 -225,115 -9,7 -37,43 -60,79 l -44,66 z"
         id="path7890"
         style="fill:#ffffff" /><path
         d="m 20094,14295 c 14,-187 26,-497 26,-691 v -201 l 33,-42 c 47,-59 123,-119 165,-131 21,-5 75,-19 122,-30 154,-37 198,-58 271,-131 l 67,-67 6,31 c 11,54 19,686 11,850 l -7,158 -59,58 c -47,47 -72,64 -121,80 -83,27 -146,40 -242,51 -95,11 -144,34 -220,102 l -59,52 z"
         id="path7892"
         style="fill:#ffffff" /><path
         d="m 14,14154 c -5,-21 -8,-253 -9,-515 v -476 l 36,-44 c 21,-25 56,-58 78,-74 50,-34 182,-71 305,-85 102,-12 153,-35 236,-108 l 53,-46 -7,84 c -14,185 -26,486 -26,688 v 214 l -66,68 c -77,80 -103,94 -222,120 -116,24 -239,72 -277,107 -17,16 -44,46 -62,67 l -32,39 z"
         id="path7894"
         style="fill:#ffffff" /><path
         d="m 20106,13079 c -3,-19 -8,-86 -11,-149 -8,-147 -40,-464 -65,-650 l -20,-145 46,-68 c 60,-87 103,-122 184,-148 36,-12 108,-43 161,-70 101,-50 151,-95 190,-171 12,-24 23,-38 25,-33 19,65 100,617 124,840 5,55 12,121 15,146 5,43 2,51 -41,109 -26,34 -63,72 -83,84 -51,32 -155,71 -252,96 -45,12 -94,27 -108,35 -32,16 -86,67 -128,119 l -32,39 z"
         id="path7896"
         style="fill:#ffffff" /><path
         d="m 30,12807 c 0,-92 62,-614 104,-867 24,-151 21,-145 113,-210 61,-44 138,-60 312,-66 171,-6 197,-14 296,-89 l 48,-37 -7,28 c -35,140 -104,536 -136,789 l -20,160 -53,48 c -79,73 -137,97 -259,108 -190,16 -274,47 -365,132 l -33,31 z"
         id="path7898"
         style="fill:#ffffff" /><path
         d="m 19927,11672 c -43,-212 -89,-408 -148,-629 l -41,-151 32,-66 c 49,-99 87,-136 197,-195 54,-28 128,-74 166,-102 57,-43 72,-61 100,-120 17,-38 35,-69 38,-69 14,0 155,481 230,786 l 50,203 -22,43 c -59,117 -146,185 -313,248 -43,16 -92,38 -109,51 -36,24 -95,96 -124,151 l -19,36 z"
         id="path7900"
         style="fill:#ffffff" /><path
         d="m 9775,11739 c -1106,-35 -2042,-177 -2450,-369 -108,-51 -168,-99 -195,-156 -31,-62 -18,-104 50,-168 405,-379 2745,-584 4630,-405 998,94 1663,280 1730,484 124,377 -1729,680 -3765,614 z m 1330,-309 c 1103,-43 2050,-168 2050,-270 0,-81 -663,-183 -1530,-235 -774,-46 -1744,-48 -2500,-5 -844,49 -1536,145 -1615,226 -13,14 -13,17 9,35 118,96 1026,210 1991,248 304,12 1296,12 1595,1 z"
         id="path7902"
         style="fill:#ffffff" /><path
         d="m 220,11481 c 0,-45 109,-490 182,-741 28,-96 55,-192 61,-213 11,-44 46,-74 131,-113 57,-26 60,-26 205,-19 287,14 279,15 368,-31 l 79,-40 -63,188 c -64,191 -180,585 -204,692 -11,50 -18,63 -53,88 -106,77 -122,81 -341,88 -190,6 -203,8 -251,33 -28,14 -65,38 -83,52 -17,15 -31,22 -31,16 z"
         id="path7904"
         style="fill:#ffffff" /><path
         d="m 19712,10620 c -63,-162 -206,-478 -317,-701 l -86,-170 16,-62 c 24,-96 61,-163 113,-205 86,-69 204,-187 228,-229 14,-23 31,-69 38,-103 9,-47 15,-59 23,-48 39,48 309,570 413,797 l 52,115 -17,63 c -9,34 -29,82 -45,106 -29,46 -137,139 -228,196 -73,46 -117,101 -151,190 -27,70 -30,74 -39,51 z"
         id="path7906"
         style="fill:#ffffff" /><path
         d="m 12760,10433 c -225,-41 -483,-78 -732,-105 -228,-25 -208,-8 -182,-153 55,-316 200,-738 360,-1052 237,-463 560,-813 874,-949 144,-63 256,-86 410,-86 499,-1 957,299 1203,787 74,149 134,344 152,497 l 7,57 -78,-34 c -99,-42 -232,-81 -349,-101 -139,-25 -399,-15 -528,19 -212,56 -390,159 -548,316 -190,191 -313,422 -388,731 l -26,105 z"
         id="path7908"
         style="fill:#ffffff" /><path
         d="m 7696,10373 c -96,-483 -404,-881 -799,-1034 -312,-120 -672,-111 -1000,25 -48,20 -89,36 -92,36 -10,0 -4,-55 16,-153 113,-560 522,-1014 1027,-1143 334,-85 620,-37 902,151 364,242 705,756 915,1380 63,186 107,350 135,507 31,175 36,164 -67,172 -214,17 -777,98 -989,141 l -31,7 z"
         id="path7910"
         style="fill:#ffffff" /><path
         d="M 9116,10173 C 9007,9499 8723,8788 8325,8195 l -103,-153 67,-129 c 370,-709 1091,-1396 1877,-1790 l 152,-75 149,74 c 785,393 1527,1100 1878,1790 l 67,133 -82,120 c -396,581 -692,1305 -804,1970 l -23,140 -59,-2 c -33,-1 -144,-7 -249,-12 -104,-6 -301,-13 -436,-17 l -246,-7 -7,-111 c -3,-61 -13,-313 -21,-561 -31,-942 -63,-1348 -136,-1730 -12,-60 -25,-113 -28,-118 -4,-4 -15,27 -24,70 -73,350 -115,834 -142,1648 -14,437 -26,724 -30,761 l -6,41 -247,7 c -260,7 -575,22 -678,31 l -61,6 z"
         id="path7912"
         style="fill:#ffffff" /><path
         d="m 586,10157 c 35,-115 206,-546 325,-816 l 54,-124 65,-31 c 103,-48 223,-47 390,5 101,32 193,24 312,-26 12,-5 -11,53 -73,181 -92,192 -234,511 -284,641 -27,71 -28,71 -94,102 -111,51 -154,57 -262,36 -52,-10 -139,-19 -195,-19 -98,-1 -104,0 -173,36 -67,34 -71,35 -65,15 z"
         id="path7914"
         style="fill:#ffffff" /><path
         d="m 19098,9261 c -96,-194 -204,-395 -309,-573 l -69,-116 11,-58 c 23,-124 42,-157 167,-282 126,-126 168,-190 178,-268 4,-27 10,-55 13,-61 17,-33 538,855 527,897 -36,136 -48,161 -103,221 -32,34 -92,87 -133,119 -119,91 -140,121 -187,271 -7,24 -17,9 -95,-150 z"
         id="path7916"
         style="fill:#ffffff" /><path
         d="m 1595,8944 c -133,-42 -197,-56 -275,-61 -75,-5 -92,-2 -147,20 -35,14 -63,23 -63,20 0,-23 275,-516 422,-758 82,-135 87,-141 134,-158 84,-32 157,-32 259,-2 49,14 121,41 160,58 62,28 80,32 150,30 44,0 101,-8 127,-16 32,-10 45,-11 40,-4 -4,7 -59,91 -123,187 -111,168 -287,455 -359,587 -33,61 -34,61 -105,82 -98,29 -160,33 -220,15 z"
         id="path7918"
         style="fill:#ffffff" /><path
         d="m 18502,8228 c -92,-141 -293,-422 -410,-573 l -100,-129 4,-66 c 7,-94 29,-162 69,-212 160,-197 192,-256 202,-366 l 8,-81 122,147 c 145,176 314,393 430,555 l 86,119 -7,63 c -3,35 -11,78 -18,97 -17,51 -91,150 -169,225 -91,89 -110,120 -134,228 l -20,90 z"
         id="path7920"
         style="fill:#ffffff" /><path
         d="m 2300,7846 c -19,-7 -62,-27 -95,-44 -106,-53 -197,-75 -278,-69 -40,4 -85,9 -101,13 l -29,7 52,-76 c 118,-170 269,-373 417,-559 l 157,-196 83,-12 c 118,-17 145,-8 419,139 58,32 63,33 163,29 56,-2 102,-2 102,0 0,2 -35,42 -78,90 -126,142 -270,316 -406,492 -103,133 -135,168 -164,179 -54,19 -199,24 -242,7 z"
         id="path7922"
         style="fill:#ffffff" /><path
         d="m 17685,7164 c -66,-76 -217,-237 -335,-357 l -215,-219 v -112 c 0,-118 10,-150 70,-231 35,-47 104,-189 115,-238 5,-26 6,-72 2,-110 l -8,-65 25,20 c 69,53 420,392 563,543 l 160,169 -4,96 c -3,74 -9,105 -28,140 -23,46 -93,149 -155,230 -39,52 -53,95 -63,198 l -7,74 z"
         id="path7924"
         style="fill:#ffffff" /><path
         d="m 3184,6859 c -23,-5 -70,-28 -105,-50 -35,-22 -107,-61 -159,-87 -94,-47 -96,-47 -192,-46 h -97 l 101,-110 c 56,-61 218,-227 360,-368 l 259,-257 55,-7 c 112,-14 230,34 377,151 94,75 127,88 235,94 l 93,6 -108,93 c -147,128 -483,443 -553,519 l -57,63 -84,4 c -46,3 -103,1 -125,-5 z"
         id="path7926"
         style="fill:#ffffff" /><path
         d="m 16785,6270 c -154,-135 -382,-320 -527,-429 l -96,-72 -12,-68 c -19,-102 -10,-185 27,-257 46,-90 93,-238 93,-292 0,-26 -7,-72 -15,-102 -8,-30 -13,-55 -12,-56 8,-8 518,371 712,529 l 120,98 12,77 c 7,52 8,92 2,122 -10,43 -75,184 -140,300 -30,53 -30,58 -27,163 2,59 2,107 2,107 -1,0 -64,-54 -139,-120 z"
         id="path7928"
         style="fill:#ffffff" /><path
         d="m 4165,5986 c -65,-16 -74,-21 -183,-109 -138,-111 -198,-140 -300,-147 l -83,-5 133,-111 c 170,-142 384,-309 554,-431 129,-93 136,-97 182,-94 130,7 186,38 346,190 112,106 145,124 261,139 l 58,7 -149,100 c -166,112 -435,305 -564,408 -84,66 -86,67 -145,66 -33,0 -82,-6 -110,-13 z"
         id="path7930"
         style="fill:#ffffff" /><path
         d="m 15750,5483 c -166,-109 -462,-289 -597,-364 -60,-33 -63,-36 -83,-99 -35,-103 -36,-171 -6,-263 32,-98 56,-213 56,-271 0,-25 -11,-75 -25,-112 -22,-58 -23,-65 -7,-60 74,28 578,311 786,441 95,60 101,65 119,116 40,110 21,228 -67,434 -30,69 -33,139 -12,230 8,33 14,61 13,62 -2,1 -81,-50 -177,-114 z"
         id="path7932"
         style="fill:#ffffff" /><path
         d="m 5304,5263 c -110,-22 -163,-52 -230,-128 -64,-73 -192,-181 -233,-197 -14,-5 -55,-15 -91,-21 l -65,-12 138,-88 c 178,-112 433,-262 616,-362 l 144,-78 73,17 c 115,27 188,87 305,247 59,80 102,111 196,141 40,13 73,25 73,28 0,3 -66,38 -147,79 -187,92 -411,213 -579,311 l -131,76 z"
         id="path7934"
         style="fill:#ffffff" /><path
         d="m 14665,4864 c -201,-98 -433,-202 -602,-270 l -123,-49 -47,-94 -48,-93 -2,-162 c -2,-179 -16,-268 -62,-376 l -28,-68 106,38 c 268,97 485,183 745,296 l 179,78 23,50 c 43,96 49,136 35,237 -7,51 -24,129 -38,173 -29,97 -26,165 12,259 13,33 23,62 22,62 -1,1 -78,-35 -172,-81 z"
         id="path7936"
         style="fill:#ffffff" /><path
         d="m 12065,4843 c -60,-9 -223,-53 -337,-92 -236,-82 -441,-181 -523,-252 -30,-27 -33,-34 -28,-67 9,-60 37,-124 83,-193 46,-68 258,-285 302,-308 25,-13 29,-11 70,22 71,57 212,146 293,182 120,55 184,68 309,63 l 110,-5 125,55 c 149,64 514,212 589,238 28,10 52,21 52,25 0,13 -140,137 -196,174 -124,83 -278,134 -459,155 -87,9 -329,11 -390,3 z"
         id="path7938"
         style="fill:#ffffff" /><path
         d="m 9279,4731 c -53,-4 -94,-12 -110,-22 -13,-9 -50,-52 -81,-96 -145,-201 -213,-353 -206,-461 5,-76 21,-98 62,-82 34,13 182,13 401,0 221,-14 331,-32 450,-75 54,-19 111,-35 127,-35 40,0 202,55 258,87 25,15 98,67 162,116 l 117,89 -16,32 c -25,48 -128,150 -208,205 -154,107 -393,202 -589,236 -88,15 -203,17 -367,6 z"
         id="path7940"
         style="fill:#ffffff" /><path
         d="M 8565,4700 C 8117,4595 7730,4330 7473,3951 l -51,-74 25,-81 c 75,-247 203,-421 348,-475 92,-35 105,-31 142,47 18,37 55,97 83,134 71,94 240,259 362,353 57,44 116,95 132,113 l 29,34 2,171 c 2,148 6,185 27,267 27,100 72,210 108,260 12,17 18,30 13,29 -4,0 -62,-13 -128,-29 z"
         id="path7942"
         style="fill:#ffffff" /><path
         d="m 6430,4667 c -118,-43 -152,-69 -220,-172 -93,-140 -188,-219 -294,-246 l -49,-12 39,-20 c 138,-71 591,-264 828,-352 l 98,-37 71,27 c 39,16 87,43 107,62 43,38 126,154 164,230 36,72 82,115 171,159 l 76,38 -203,69 c -112,38 -313,114 -448,169 -135,54 -252,101 -260,104 -8,2 -44,-6 -80,-19 z"
         id="path7944"
         style="fill:#ffffff" /><path
         d="m 13530,4428 c -30,-11 -133,-49 -228,-84 -241,-90 -473,-189 -707,-303 l -200,-97 -18,-55 c -12,-34 -22,-111 -28,-209 -16,-243 -24,-280 -84,-397 -42,-83 -49,-103 -35,-103 34,0 275,71 405,120 182,68 413,177 630,296 l 179,99 29,89 c 36,114 45,225 23,285 -9,24 -16,61 -16,82 0,42 45,165 91,247 16,28 26,52 22,51 -5,0 -33,-9 -63,-21 z"
         id="path7946"
         style="fill:#ffffff" /><path
         d="m 10825,4249 c -435,-386 -567,-461 -879,-496 l -69,-8 -34,-60 c -18,-33 -47,-103 -65,-155 -28,-84 -32,-111 -35,-235 -2,-77 0,-145 4,-151 12,-17 360,-34 463,-23 138,15 363,75 467,126 117,56 277,162 373,247 41,36 130,112 197,168 l 122,102 -85,85 c -107,107 -197,225 -243,321 -32,67 -36,83 -36,157 0,46 0,83 0,82 0,0 -81,-72 -180,-160 z"
         id="path7948"
         style="fill:#ffffff" /><path
         d="m 8667,3836 c -88,-45 -161,-101 -191,-147 -14,-20 -46,-54 -72,-75 -44,-37 -164,-170 -164,-184 0,-9 216,-91 375,-143 294,-96 608,-164 800,-174 l 110,-6 -3,71 c -2,39 3,106 12,151 14,75 100,309 132,359 8,12 22,34 31,48 l 17,26 -60,-6 c -76,-9 -360,23 -634,70 -293,51 -274,51 -353,10 z"
         id="path7950"
         style="fill:#ffffff" /><path
         d="m 12078,3809 c -39,-22 -389,-140 -478,-161 -93,-21 -96,-23 -165,-88 -122,-114 -256,-221 -382,-303 -68,-43 -121,-83 -118,-88 9,-14 131,-48 229,-65 134,-22 370,-29 526,-15 202,17 194,15 250,84 75,93 126,260 150,497 5,47 12,100 16,118 7,33 1,38 -28,21 z"
         id="path7952"
         style="fill:#ffffff" /><path
         d="m 7261,3515 c -66,-224 -86,-375 -78,-600 10,-297 87,-567 233,-816 l 44,-76 68,-12 c 37,-7 144,-15 237,-18 250,-8 354,16 462,103 l 42,34 -88,88 c -190,188 -303,428 -318,678 l -6,102 -60,13 c -220,46 -407,238 -493,504 l -22,69 z"
         id="path7954"
         style="fill:#ffffff" /><path
         d="m 13290,3340 c -200,-92 -366,-172 -368,-178 -2,-6 1,-19 7,-30 20,-37 31,-145 21,-205 -11,-70 -49,-158 -91,-210 l -30,-38 55,-24 c 273,-121 475,-220 569,-282 80,-51 76,-52 142,48 61,91 102,184 133,299 21,81 25,117 25,250 0,85 -5,184 -12,220 -19,106 -74,320 -80,319 -3,0 -170,-76 -371,-169 z"
         id="path7956"
         style="fill:#ffffff" /><path
         d="m 8505,2900 c -148,-13 -365,-60 -365,-79 0,-21 115,-202 219,-346 68,-93 124,-171 125,-171 1,-1 69,5 151,14 125,12 166,13 249,3 92,-12 232,-48 265,-70 11,-7 63,38 219,190 112,109 230,218 263,242 l 60,42 -32,13 c -118,48 -432,121 -629,147 -146,18 -408,26 -525,15 z"
         id="path7958"
         style="fill:#ffffff" /><path
         d="m 11635,2863 c -192,-16 -373,-52 -517,-103 -124,-44 -181,-75 -241,-131 l -42,-41 95,-28 c 252,-73 445,-173 617,-317 l 72,-60 106,-7 c 93,-6 192,-20 300,-41 26,-6 40,1 100,51 141,115 293,206 427,256 68,25 99,31 173,32 50,0 103,-2 118,-7 27,-7 26,-6 -10,26 -102,92 -352,227 -528,286 -219,73 -455,102 -670,84 z"
         id="path7960"
         style="fill:#ffffff" /><path
         d="m 9767,2409 c -175,-122 -314,-226 -310,-230 4,-4 202,-71 438,-149 237,-78 453,-155 482,-170 28,-16 125,-84 215,-151 90,-67 173,-126 185,-132 18,-8 33,-2 90,33 187,118 359,262 415,349 18,29 28,58 28,82 0,32 -7,43 -47,79 -81,71 -221,159 -378,235 -170,83 -294,128 -579,210 -110,31 -204,59 -211,61 -6,3 -154,-95 -328,-217 z"
         id="path7962"
         style="fill:#ffffff" /><path
         d="m 6974,2295 c -151,-55 -318,-203 -537,-475 -77,-96 -147,-183 -156,-193 -8,-10 11,-2 43,17 60,36 129,56 196,56 145,0 332,-95 495,-251 l 80,-77 115,105 c 63,57 147,130 187,160 l 72,55 -57,42 c -139,103 -245,263 -317,479 -19,56 -40,103 -47,103 -7,1 -41,-8 -74,-21 z"
         id="path7964"
         style="fill:#ffffff" /><path
         d="m 12725,2276 c -142,-33 -251,-93 -350,-191 l -57,-57 83,-49 c 238,-142 521,-419 649,-636 l 53,-88 56,53 c 71,67 178,141 268,186 175,88 334,88 463,1 l 51,-35 -31,43 c -123,169 -282,367 -342,427 -99,100 -257,224 -339,265 -155,78 -368,112 -504,81 z"
         id="path7966"
         style="fill:#ffffff" /><path
         d="m 11567,1951 c -2,-22 -21,-64 -42,-95 -51,-77 -229,-245 -368,-346 -64,-47 -116,-88 -116,-91 -2,-13 200,-109 299,-144 153,-53 299,-75 492,-75 234,0 415,42 587,136 61,33 170,112 170,124 1,3 -16,16 -36,30 -102,69 -248,252 -323,404 -30,61 -34,65 -54,53 -36,-21 -310,-14 -453,11 -67,12 -128,25 -136,28 -10,4 -16,-5 -20,-35 z"
         id="path7968"
         style="fill:#ffffff" /><path
         d="m 8503,1931 c -53,-85 -164,-144 -333,-178 -41,-8 -162,-18 -268,-22 l -194,-6 84,-69 c 232,-193 529,-339 799,-391 l 86,-17 74,34 c 89,41 188,130 238,212 60,100 111,274 111,379 v 42 l -167,1 c -170,1 -196,5 -379,59 -16,5 -26,-3 -51,-44 z"
         id="path7970"
         style="fill:#ffffff" /><path
         d="m 9362,1914 c 29,-86 34,-205 13,-299 -29,-132 -133,-301 -238,-389 l -41,-34 49,-9 c 95,-16 273,-8 370,17 256,64 547,225 795,438 l 35,30 -75,35 c -155,72 -435,158 -739,227 -99,22 -181,40 -184,40 -2,0 5,-25 15,-56 z"
         id="path7972"
         style="fill:#ffffff" /><path
         d="m 6251,1424 c -62,-17 -154,-64 -201,-103 l -32,-27 252,-232 c 138,-128 255,-232 259,-232 4,0 85,76 181,168 l 174,168 -23,33 c -58,81 -235,195 -351,226 -69,19 -189,18 -259,-1 z"
         id="path7974"
         style="fill:#ffffff" /><path
         d="m 13677,1284 c -33,-8 -94,-32 -137,-55 -75,-39 -202,-136 -223,-170 -9,-14 20,-48 159,-193 93,-97 172,-175 176,-173 4,1 124,102 267,224 l 261,222 -50,40 c -132,105 -297,143 -453,105 z"
         id="path7976"
         style="fill:#ffffff" /><path
         d="m 5872,1102 -31,-39 235,-227 234,-226 30,34 c 17,18 30,36 30,39 0,5 -225,226 -386,380 l -81,77 z"
         id="path7978"
         style="fill:#ffffff" /><path
         d="m 5619,907 c -48,-34 -106,-78 -129,-97 l -42,-35 252,-295 c 138,-162 257,-301 264,-308 10,-11 32,15 114,137 56,82 105,157 108,165 4,11 -65,88 -227,256 -128,132 -238,240 -244,240 -5,0 -49,-28 -96,-63 z"
         id="path7980"
         style="fill:#ffffff" /><path
         d="m 14013,744 c -134,-118 -243,-218 -243,-223 0,-4 15,-21 33,-38 l 32,-31 240,214 c 132,117 241,217 242,221 2,5 -11,23 -29,40 l -33,32 z"
         id="path7982"
         style="fill:#ffffff" /><path
         d="m 14217,573 c -136,-129 -246,-238 -244,-241 5,-9 199,-326 202,-329 4,-5 545,586 545,596 0,8 -133,119 -220,184 l -35,25 z"
         id="path7984"
         style="fill:#ffffff" /></g></g></svg>
